<svg width="239" height="159" viewBox="0 0 239 159" fill="none" xmlns="http://www.w3.org/2000/svg">
<path d="M108.18 114.22C111.14 112.9 113.94 112.24 116.58 112.24C120.02 112.24 121.78 114.26 121.86 118.3H115.5C112.26 118.3 109.64 119.1 107.64 120.7C105.68 122.3 104.7 124.56 104.7 127.48C104.7 130.28 105.56 132.52 107.28 134.2C109.04 135.88 111.6 136.72 114.96 136.72C116.4 136.72 117.84 136.38 119.28 135.7C120.72 135.02 122 134.14 123.12 133.06L124.14 136H128.64V116.56C128.64 114.6 128.1 112.84 127.02 111.28C125.94 109.68 124.46 108.42 122.58 107.5C120.74 106.58 118.7 106.12 116.46 106.12C115.1 106.12 113.32 106.38 111.12 106.9C108.96 107.42 107.36 108.02 106.32 108.7L108.18 114.22ZM110.58 127.48C110.58 126.16 111 125.06 111.84 124.18C112.72 123.26 113.9 122.8 115.38 122.8H121.92V128.02C120.92 129.06 119.8 129.88 118.56 130.48C117.32 131.08 116.08 131.38 114.84 131.38C113.52 131.38 112.48 131 111.72 130.24C110.96 129.44 110.58 128.52 110.58 127.48ZM142.083 117.46C143.683 116.02 145.443 114.8 147.363 113.8C149.283 112.8 150.963 112.3 152.403 112.3L151.023 106.9C149.623 106.9 147.983 107.4 146.103 108.4C144.263 109.4 142.623 110.5 141.183 111.7L138.963 106.9H135.363V136H142.083V117.46ZM169.477 106.12C172.437 106.12 175.017 106.76 177.217 108.04C179.417 109.28 181.097 111.06 182.257 113.38C183.457 115.7 184.057 118.42 184.057 121.54C184.057 124.54 183.457 127.2 182.257 129.52C181.057 131.8 179.337 133.58 177.097 134.86C174.897 136.14 172.317 136.78 169.357 136.78C168.277 136.78 167.057 136.54 165.697 136.06C164.377 135.58 163.137 134.94 161.977 134.14L160.597 136H157.057V94.3L163.777 93.64V107.68C165.737 106.64 167.637 106.12 169.477 106.12ZM169.357 130.96C171.757 130.96 173.637 130.08 174.997 128.32C176.397 126.56 177.097 124.3 177.097 121.54C177.097 118.66 176.417 116.34 175.057 114.58C173.697 112.78 171.797 111.88 169.357 111.88C168.317 111.88 167.337 112.04 166.417 112.36C165.537 112.68 164.657 113.16 163.777 113.8V129.16C165.417 130.36 167.277 130.96 169.357 130.96ZM214.592 121.24C214.592 116.84 213.492 113.22 211.292 110.38C209.092 107.54 205.852 106.12 201.572 106.12C198.652 106.12 196.112 106.76 193.952 108.04C191.832 109.32 190.192 111.12 189.032 113.44C187.912 115.72 187.352 118.38 187.352 121.42C187.352 126.14 188.732 129.88 191.492 132.64C194.292 135.36 198.332 136.72 203.612 136.72C207.532 136.72 211.112 135.6 214.352 133.36L212.312 128.44C210.592 129.32 209.112 129.98 207.872 130.42C206.672 130.82 205.292 131.02 203.732 131.02C198.132 131.02 195.032 128.42 194.432 123.22H214.592V121.24ZM194.552 118.72C194.832 116.56 195.552 114.88 196.712 113.68C197.912 112.48 199.472 111.88 201.392 111.88C203.272 111.88 204.772 112.46 205.892 113.62C207.012 114.78 207.752 116.48 208.112 118.72H194.552ZM226.399 117.46C227.999 116.02 229.759 114.8 231.679 113.8C233.599 112.8 235.279 112.3 236.719 112.3L235.339 106.9C233.939 106.9 232.299 107.4 230.419 108.4C228.579 109.4 226.939 110.5 225.499 111.7L223.279 106.9H219.679V136H226.399V117.46Z" fill="#99BAED"/>
<path d="M74.5548 11.0178C65.7244 11.4622 58.7555 19.0181 59.2099 27.8878L61.5498 73.4964L46.3226 79.949C41.6186 71.0091 30.8094 67.0082 21.3704 71.0091C11.4039 75.2349 6.74637 86.7754 10.9656 96.7915C15.1867 106.805 26.6863 111.502 36.6551 107.278C43.4952 104.378 47.8331 98.031 48.5181 91.0987L67.1671 83.1945L68.2086 103.505C62.2985 107.145 58.5022 113.833 58.8829 121.283C59.4406 132.141 68.6547 140.498 79.4628 139.955C90.2737 139.41 98.5834 130.17 98.0272 119.315C97.4996 109.034 89.2079 100.999 79.1521 100.636L78.3003 84.0506L120.171 66.3044C128.316 62.8533 132.048 53.2576 128.6 45.0758L77.4145 66.7718L74.5548 11.0178ZM37.6833 94.5561C34.7058 99.3276 28.4364 100.766 23.6808 97.7695C18.9252 94.7727 17.4837 88.4744 20.461 83.7031C23.4391 78.9304 29.7078 77.4927 34.4634 80.4896C39.2191 83.4864 40.6614 89.7834 37.6833 94.5561ZM87.0537 125.668C84.0763 130.44 77.807 131.878 73.0513 128.881C68.2957 125.885 66.854 119.587 69.8315 114.815C72.8096 110.042 79.0783 108.605 83.8339 111.601C88.5894 114.598 90.0319 120.895 87.0537 125.668Z" fill="#99BAED"/>
</svg>
